<svg version="1.1" xmlns="http://www.w3.org/2000/svg" viewBox="0 0 113.61857011868756 43.407011958219755" width="113.61857011868756" height="43.407011958219755" filter="invert(93%) hue-rotate(180deg)" class="excalidraw-svg"><!-- svg-source:excalidraw --><metadata></metadata><defs><style class="style-fonts">
      </style></defs><g transform="translate(10.502961546764936 32.612910302322575) rotate(0 -0.2514807733824682 -9.543025692443166)" stroke="none"><path fill="#1e1e1e" d="M -1.28,0.07 Q -1.28,0.07 -1.33,-0.57 -1.37,-1.23 -1.43,-1.91 -1.50,-2.60 -1.53,-3.39 -1.57,-4.19 -1.55,-5.23 -1.54,-6.27 -1.51,-6.88 -1.48,-7.48 -1.46,-8.14 -1.44,-8.80 -1.42,-9.49 -1.41,-10.18 -1.41,-10.81 -1.41,-11.45 -1.49,-12.53 -1.56,-13.61 -1.66,-14.55 -1.76,-15.49 -1.83,-17.36 -1.89,-19.23 -1.83,-19.45 -1.76,-19.68 -1.62,-19.87 -1.49,-20.06 -1.30,-20.20 -1.10,-20.34 -0.88,-20.41 -0.66,-20.48 -0.42,-20.47 -0.18,-20.47 0.03,-20.39 0.25,-20.31 0.43,-20.16 0.62,-20.02 0.74,-19.82 0.87,-19.62 0.93,-19.39 0.99,-19.16 0.97,-18.93 0.95,-18.69 0.86,-18.48 0.77,-18.26 0.61,-18.09 0.46,-17.91 0.25,-17.79 0.05,-17.67 -0.17,-17.63 -0.40,-17.58 -0.64,-17.61 -0.87,-17.64 -1.08,-17.75 -1.29,-17.85 -1.46,-18.02 -1.63,-18.18 -1.73,-18.39 -1.84,-18.60 -1.87,-18.84 -1.91,-19.07 -1.86,-19.30 -1.82,-19.53 -1.70,-19.74 -1.59,-19.94 -1.42,-20.10 -1.24,-20.26 -1.03,-20.35 -0.81,-20.45 -0.58,-20.47 -0.34,-20.49 -0.11,-20.43 0.11,-20.38 0.31,-20.25 0.51,-20.13 0.65,-19.94 0.80,-19.76 0.88,-19.54 0.97,-19.32 0.97,-19.08 0.98,-18.85 0.98,-18.85 0.98,-18.85 1.05,-17.28 1.12,-15.70 1.18,-14.75 1.24,-13.79 1.28,-13.22 1.31,-12.66 1.34,-12.05 1.36,-11.45 1.37,-10.82 1.37,-10.19 1.39,-9.48 1.41,-8.76 1.41,-8.06 1.41,-7.37 1.40,-6.77 1.38,-6.17 1.34,-5.19 1.30,-4.20 1.28,-3.43 1.25,-2.67 1.23,-2.02 1.21,-1.38 1.25,-0.72 1.28,-0.07 1.27,0.08 1.26,0.23 1.22,0.38 1.17,0.53 1.09,0.66 1.01,0.79 0.90,0.90 0.79,1.01 0.66,1.09 0.52,1.17 0.37,1.22 0.22,1.27 0.07,1.27 -0.08,1.28 -0.23,1.26 -0.38,1.23 -0.52,1.16 -0.67,1.10 -0.79,1.00 -0.91,0.91 -1.01,0.78 -1.10,0.66 -1.17,0.52 -1.23,0.38 -1.26,0.22 -1.28,0.07 -1.28,0.07 L -1.28,0.07 Z"></path></g><g transform="translate(19.741563995482238 23.215479432762322) rotate(0 -4.208991020320468 0.48972491936609686)" stroke="none"><path fill="#1e1e1e" d="M 0.17,1.32 Q 0.17,1.32 -0.41,1.40 -0.99,1.49 -1.82,1.58 -2.65,1.67 -3.24,1.73 -3.84,1.79 -4.44,1.87 -5.04,1.94 -6.61,2.21 -8.18,2.49 -8.42,2.48 -8.67,2.47 -8.90,2.39 -9.13,2.30 -9.33,2.15 -9.52,1.99 -9.65,1.78 -9.79,1.58 -9.85,1.34 -9.91,1.10 -9.89,0.85 -9.87,0.60 -9.77,0.38 -9.67,0.15 -9.51,-0.03 -9.34,-0.21 -9.13,-0.33 -8.91,-0.45 -8.67,-0.50 -8.43,-0.55 -8.18,-0.52 -7.94,-0.48 -7.71,-0.37 -7.49,-0.26 -7.32,-0.09 -7.14,0.08 -7.03,0.30 -6.92,0.52 -6.89,0.77 -6.85,1.01 -6.90,1.25 -6.95,1.50 -7.07,1.71 -7.19,1.93 -7.37,2.09 -7.56,2.26 -7.79,2.36 -8.01,2.45 -8.26,2.47 -8.51,2.49 -8.75,2.44 -8.99,2.38 -9.19,2.24 -9.40,2.11 -9.56,1.92 -9.71,1.72 -9.80,1.49 -9.88,1.26 -9.89,1.01 -9.90,0.76 -9.83,0.53 -9.75,0.29 -9.61,0.09 -9.47,-0.10 -9.26,-0.24 -9.06,-0.39 -8.83,-0.46 -8.59,-0.53 -8.59,-0.53 -8.59,-0.53 -6.97,-0.81 -5.34,-1.08 -4.68,-1.12 -4.02,-1.15 -3.42,-1.15 -2.82,-1.15 -2.08,-1.17 -1.34,-1.18 -0.75,-1.25 -0.17,-1.32 -0.01,-1.32 0.15,-1.32 0.30,-1.29 0.46,-1.25 0.60,-1.18 0.75,-1.10 0.87,-1.00 0.99,-0.89 1.08,-0.76 1.17,-0.63 1.23,-0.48 1.29,-0.33 1.31,-0.17 1.33,-0.01 1.31,0.14 1.30,0.30 1.24,0.46 1.18,0.61 1.09,0.74 1.00,0.87 0.88,0.98 0.76,1.09 0.62,1.17 0.48,1.24 0.32,1.28 0.17,1.32 0.17,1.32 L 0.17,1.32 Z"></path></g><g transform="translate(25.88417256802404 11.842218004261667) rotate(0 12.444004629971573 9.86128797484821)" stroke="none"><path fill="#1e1e1e" d="M 1.10,-0.13 Q 1.10,-0.13 1.20,0.57 1.29,1.27 1.38,2.09 1.47,2.91 1.55,3.45 1.64,3.98 1.70,4.57 1.76,5.16 1.81,5.80 1.87,6.45 1.86,7.25 1.86,8.06 1.83,8.91 1.80,9.77 1.78,10.66 1.75,11.54 1.72,12.45 1.70,13.36 1.68,14.26 1.66,15.17 1.64,16.03 1.63,16.90 1.66,17.59 1.68,18.28 1.79,19.14 1.90,20.00 2.78,19.70 3.65,19.40 4.19,19.27 4.73,19.14 5.30,19.03 5.87,18.92 6.73,18.85 7.59,18.78 8.14,18.72 8.68,18.66 9.32,18.62 9.96,18.58 10.63,18.56 11.29,18.54 11.96,18.52 12.63,18.50 13.24,18.49 13.86,18.48 14.42,18.46 14.98,18.44 15.53,18.42 16.08,18.40 16.61,18.38 17.15,18.36 18.06,18.30 18.97,18.24 19.68,18.19 20.39,18.13 21.03,18.03 21.66,17.93 21.74,17.10 21.82,16.27 21.98,15.59 22.15,14.91 22.33,13.76 22.52,12.62 22.69,11.85 22.86,11.08 23.04,10.25 23.21,9.43 23.33,8.62 23.44,7.80 23.48,7.14 23.52,6.48 23.52,5.48 23.52,4.47 23.50,3.51 23.48,2.55 23.48,1.95 23.48,1.35 23.45,0.77 23.42,0.19 22.72,0.06 22.02,-0.06 21.24,-0.16 20.45,-0.25 19.73,-0.28 19.01,-0.32 18.27,-0.36 17.53,-0.40 16.81,-0.42 16.09,-0.44 15.37,-0.44 14.66,-0.44 13.88,-0.46 13.10,-0.47 12.34,-0.46 11.58,-0.46 10.83,-0.44 10.09,-0.43 9.34,-0.40 8.59,-0.37 7.70,-0.36 6.80,-0.34 6.22,-0.28 5.65,-0.22 5.11,-0.14 4.57,-0.07 2.99,0.13 1.40,0.33 1.20,0.33 1.00,0.32 0.81,0.25 0.62,0.17 0.46,0.04 0.30,-0.07 0.20,-0.25 0.09,-0.42 0.04,-0.62 0.00,-0.81 0.02,-1.02 0.03,-1.22 0.12,-1.40 0.20,-1.59 0.34,-1.74 0.47,-1.89 0.65,-1.99 0.83,-2.08 1.03,-2.12 1.23,-2.16 1.43,-2.13 1.63,-2.10 1.81,-2.00 1.99,-1.91 2.13,-1.77 2.27,-1.62 2.36,-1.44 2.45,-1.26 2.48,-1.05 2.50,-0.85 2.46,-0.65 2.42,-0.46 2.32,-0.28 2.22,-0.10 2.06,0.02 1.91,0.15 1.72,0.23 1.54,0.31 1.33,0.32 1.13,0.34 0.94,0.29 0.74,0.24 0.57,0.12 0.40,0.01 0.27,-0.14 0.15,-0.30 0.08,-0.49 0.01,-0.68 0.01,-0.88 0.01,-1.08 0.07,-1.28 0.13,-1.47 0.25,-1.63 0.37,-1.80 0.54,-1.91 0.70,-2.03 0.90,-2.09 1.09,-2.15 1.09,-2.15 1.09,-2.15 2.70,-2.35 4.31,-2.55 4.89,-2.60 5.48,-2.64 6.08,-2.66 6.67,-2.68 7.57,-2.76 8.46,-2.84 9.24,-2.89 10.02,-2.94 10.76,-2.97 11.51,-3.00 12.30,-3.03 13.09,-3.07 13.86,-3.09 14.62,-3.12 15.35,-3.14 16.09,-3.16 16.85,-3.18 17.62,-3.20 18.33,-3.20 19.04,-3.19 19.82,-3.21 20.60,-3.23 21.97,-3.18 23.34,-3.13 24.22,-2.83 25.09,-2.53 25.61,-1.91 26.13,-1.28 26.24,-0.54 26.34,0.19 26.31,0.78 26.28,1.36 26.28,1.96 26.28,2.57 26.24,3.55 26.21,4.53 26.14,5.57 26.07,6.61 26.03,7.34 25.99,8.06 25.94,8.95 25.88,9.84 25.79,10.72 25.70,11.59 25.60,12.34 25.50,13.08 25.42,13.72 25.33,14.36 25.26,14.92 25.19,15.47 25.08,16.29 24.96,17.11 24.70,18.05 24.44,18.99 23.93,19.74 23.43,20.50 22.53,20.79 21.64,21.08 21.10,21.11 20.56,21.14 19.82,21.16 19.09,21.17 18.16,21.19 17.24,21.20 16.70,21.22 16.16,21.23 15.61,21.24 15.05,21.25 14.48,21.26 13.90,21.27 13.31,21.28 12.72,21.29 12.07,21.32 11.42,21.35 10.79,21.38 10.16,21.41 9.05,21.50 7.94,21.59 7.19,21.72 6.45,21.85 5.92,21.96 5.40,22.06 4.58,22.27 3.75,22.48 3.03,22.66 2.31,22.83 1.41,22.69 0.52,22.54 0.05,21.72 -0.40,20.91 -0.46,20.14 -0.51,19.37 -0.49,18.83 -0.47,18.30 -0.46,17.59 -0.44,16.88 -0.44,16.02 -0.43,15.16 -0.45,14.26 -0.46,13.35 -0.49,12.44 -0.51,11.54 -0.53,10.64 -0.55,9.75 -0.57,8.91 -0.58,8.08 -0.59,7.34 -0.61,6.60 -0.64,5.97 -0.66,5.34 -0.71,4.26 -0.75,3.18 -0.86,2.36 -0.96,1.54 -1.03,0.83 -1.10,0.13 -1.10,-0.00 -1.10,-0.13 -1.07,-0.26 -1.04,-0.40 -0.98,-0.51 -0.91,-0.63 -0.82,-0.73 -0.73,-0.83 -0.62,-0.91 -0.51,-0.99 -0.38,-1.03 -0.26,-1.08 -0.12,-1.10 0.00,-1.11 0.13,-1.10 0.27,-1.08 0.39,-1.03 0.52,-0.98 0.63,-0.91 0.74,-0.83 0.83,-0.73 0.92,-0.63 0.98,-0.51 1.04,-0.39 1.07,-0.26 1.10,-0.13 1.10,-0.13 L 1.10,-0.13 Z"></path></g><g transform="translate(37.84053441685296 10.216731732551693) rotate(0 0.25285242486313564 10.511482139046564)" stroke="none"><path fill="#1e1e1e" d="M 1.20,0.06 Q 1.20,0.06 1.19,0.61 1.18,1.17 1.22,2.09 1.27,3.02 1.30,3.60 1.33,4.19 1.34,4.84 1.36,5.50 1.37,6.21 1.38,6.93 1.39,7.72 1.39,8.51 1.41,9.26 1.43,10.00 1.42,10.79 1.41,11.57 1.42,12.34 1.42,13.10 1.44,13.75 1.47,14.39 1.51,14.97 1.55,15.54 1.59,16.07 1.63,16.60 1.47,18.24 1.31,19.87 1.47,20.01 1.63,20.16 1.74,20.35 1.85,20.54 1.89,20.75 1.93,20.97 1.90,21.18 1.87,21.40 1.77,21.59 1.68,21.79 1.52,21.94 1.37,22.09 1.17,22.19 0.98,22.29 0.76,22.32 0.55,22.35 0.33,22.31 0.12,22.27 -0.06,22.16 -0.25,22.05 -0.39,21.89 -0.54,21.73 -0.63,21.53 -0.71,21.33 -0.73,21.11 -0.75,20.89 -0.69,20.68 -0.64,20.47 -0.53,20.29 -0.41,20.10 -0.24,19.97 -0.07,19.83 0.13,19.76 0.33,19.68 0.55,19.67 0.77,19.67 0.97,19.73 1.18,19.80 1.36,19.92 1.54,20.05 1.66,20.23 1.79,20.40 1.85,20.61 1.92,20.82 1.91,21.04 1.91,21.26 1.83,21.46 1.76,21.66 1.62,21.83 1.48,22.00 1.30,22.12 1.12,22.24 0.90,22.29 0.69,22.34 0.48,22.33 0.26,22.31 0.06,22.22 -0.13,22.14 -0.13,22.14 -0.13,22.14 -0.55,19.90 -0.97,17.66 -0.97,16.66 -0.98,15.66 -0.99,15.05 -1.01,14.45 -1.01,13.80 -1.02,13.14 -1.04,12.36 -1.06,11.58 -1.07,10.84 -1.08,10.10 -1.12,9.34 -1.16,8.58 -1.20,7.80 -1.24,7.02 -1.28,6.28 -1.32,5.54 -1.32,4.92 -1.33,4.30 -1.35,3.68 -1.37,3.07 -1.34,2.05 -1.30,1.03 -1.25,0.48 -1.20,-0.06 -1.17,-0.21 -1.15,-0.35 -1.09,-0.48 -1.03,-0.61 -0.94,-0.73 -0.85,-0.84 -0.74,-0.93 -0.62,-1.02 -0.49,-1.08 -0.36,-1.14 -0.22,-1.17 -0.07,-1.20 0.06,-1.19 0.21,-1.18 0.35,-1.14 0.49,-1.10 0.61,-1.02 0.73,-0.95 0.84,-0.84 0.94,-0.74 1.02,-0.62 1.09,-0.49 1.14,-0.36 1.18,-0.22 1.19,-0.07 1.20,0.06 1.20,0.06 L 1.20,0.06 Z"></path></g><g transform="translate(49.833014891079756 21.306164584260273) rotate(0 -11.071372850038415 1.2100855641613748)" stroke="none"><path fill="#1e1e1e" d="M 0.32,1.25 Q 0.32,1.25 -0.16,1.39 -0.64,1.53 -1.54,1.72 -2.44,1.91 -3.44,2.02 -4.44,2.13 -4.99,2.16 -5.54,2.20 -6.14,2.21 -6.73,2.22 -7.34,2.24 -7.94,2.26 -8.50,2.31 -9.07,2.36 -10.03,2.48 -10.99,2.61 -11.55,2.69 -12.10,2.77 -12.70,2.83 -13.29,2.90 -13.86,2.96 -14.43,3.02 -15.00,3.07 -15.56,3.13 -16.55,3.25 -17.53,3.37 -19.95,3.61 -22.36,3.86 -22.59,3.78 -22.82,3.70 -23.01,3.55 -23.20,3.40 -23.34,3.20 -23.47,3.00 -23.53,2.77 -23.60,2.54 -23.58,2.29 -23.57,2.05 -23.48,1.83 -23.38,1.60 -23.23,1.42 -23.07,1.24 -22.86,1.11 -22.65,0.99 -22.42,0.94 -22.18,0.89 -21.94,0.92 -21.70,0.95 -21.48,1.05 -21.26,1.15 -21.09,1.32 -20.91,1.49 -20.80,1.70 -20.69,1.92 -20.65,2.16 -20.61,2.39 -20.66,2.63 -20.70,2.87 -20.81,3.08 -20.93,3.30 -21.10,3.46 -21.28,3.63 -21.50,3.73 -21.72,3.83 -21.96,3.85 -22.20,3.88 -22.44,3.82 -22.67,3.77 -22.88,3.64 -23.09,3.52 -23.24,3.33 -23.40,3.15 -23.48,2.92 -23.57,2.69 -23.58,2.45 -23.59,2.21 -23.53,1.98 -23.46,1.75 -23.32,1.55 -23.19,1.35 -22.99,1.20 -22.80,1.06 -22.57,0.98 -22.34,0.91 -22.10,0.91 -21.86,0.91 -21.86,0.91 -21.86,0.91 -19.86,0.67 -17.86,0.43 -16.86,0.33 -15.85,0.23 -15.29,0.18 -14.73,0.12 -14.17,0.06 -13.62,0.01 -13.06,-0.05 -12.51,-0.11 -11.93,-0.19 -11.35,-0.27 -10.33,-0.38 -9.32,-0.49 -8.69,-0.55 -8.06,-0.60 -7.43,-0.63 -6.79,-0.67 -5.73,-0.70 -4.67,-0.73 -3.75,-0.79 -2.82,-0.85 -2.06,-0.94 -1.30,-1.04 -0.81,-1.14 -0.32,-1.25 -0.16,-1.27 -0.01,-1.29 0.14,-1.28 0.30,-1.26 0.44,-1.20 0.59,-1.15 0.72,-1.06 0.85,-0.97 0.95,-0.86 1.06,-0.74 1.13,-0.60 1.21,-0.47 1.24,-0.31 1.28,-0.16 1.28,-0.01 1.29,0.14 1.25,0.29 1.21,0.45 1.14,0.58 1.07,0.72 0.97,0.84 0.86,0.96 0.74,1.05 0.61,1.14 0.46,1.20 0.32,1.25 0.32,1.25 L 0.32,1.25 Z"></path></g><g transform="translate(50.88054872769999 21.19779906247004) rotate(0 -6.95347199846924 -5.291863312019927)" stroke="none"><path fill="#1e1e1e" d="M -0.81,0.99 Q -0.81,0.99 -1.39,0.50 -1.96,0.02 -2.42,-0.35 -2.89,-0.73 -3.32,-1.09 -3.76,-1.46 -4.18,-1.81 -4.60,-2.17 -5.02,-2.52 -5.44,-2.88 -5.88,-3.23 -6.32,-3.59 -6.77,-3.94 -7.23,-4.29 -7.98,-4.83 -8.73,-5.38 -9.16,-5.71 -9.58,-6.04 -10.37,-6.58 -11.15,-7.12 -12.85,-8.18 -14.55,-9.24 -14.74,-9.39 -14.93,-9.53 -15.07,-9.73 -15.20,-9.93 -15.26,-10.17 -15.32,-10.40 -15.31,-10.64 -15.29,-10.88 -15.20,-11.10 -15.11,-11.33 -14.95,-11.51 -14.80,-11.69 -14.59,-11.81 -14.38,-11.93 -14.15,-11.98 -13.91,-12.03 -13.67,-12.01 -13.43,-11.98 -13.22,-11.87 -13.00,-11.77 -12.82,-11.60 -12.65,-11.44 -12.54,-11.22 -12.43,-11.01 -12.39,-10.77 -12.36,-10.53 -12.40,-10.30 -12.44,-10.06 -12.55,-9.85 -12.67,-9.64 -12.84,-9.47 -13.02,-9.31 -13.24,-9.21 -13.46,-9.11 -13.70,-9.09 -13.94,-9.06 -14.17,-9.12 -14.41,-9.17 -14.61,-9.30 -14.82,-9.42 -14.97,-9.61 -15.13,-9.79 -15.21,-10.02 -15.30,-10.24 -15.31,-10.48 -15.32,-10.72 -15.26,-10.95 -15.19,-11.18 -15.05,-11.38 -14.92,-11.58 -14.72,-11.72 -14.53,-11.87 -14.30,-11.94 -14.07,-12.02 -13.83,-12.02 -13.59,-12.01 -13.36,-11.93 -13.13,-11.86 -13.14,-11.86 -13.14,-11.86 -11.30,-10.69 -9.47,-9.52 -8.64,-8.91 -7.81,-8.29 -7.39,-7.96 -6.98,-7.63 -6.25,-7.05 -5.53,-6.47 -5.05,-6.08 -4.56,-5.70 -4.11,-5.31 -3.65,-4.93 -3.24,-4.56 -2.83,-4.19 -2.42,-3.81 -2.01,-3.44 -1.61,-3.06 -1.21,-2.69 -0.78,-2.31 -0.35,-1.93 0.22,-1.46 0.81,-0.99 0.92,-0.88 1.03,-0.77 1.10,-0.63 1.18,-0.50 1.22,-0.35 1.27,-0.20 1.27,-0.04 1.28,0.10 1.25,0.25 1.21,0.41 1.15,0.55 1.08,0.69 0.98,0.81 0.88,0.93 0.76,1.02 0.64,1.11 0.49,1.17 0.35,1.23 0.20,1.26 0.04,1.28 -0.10,1.27 -0.26,1.26 -0.40,1.21 -0.55,1.16 -0.68,1.07 -0.81,0.99 -0.81,0.99 L -0.81,0.99 Z"></path></g><g transform="translate(50.12198869722579 10.975291763026007) rotate(0 -4.461059485523606 5.075131579468177)" stroke="none"><path fill="#1e1e1e" d="M 1.11,0.74 Q 1.11,0.74 0.92,1.06 0.73,1.38 0.26,2.05 -0.20,2.72 -0.62,3.24 -1.04,3.77 -1.45,4.30 -1.86,4.83 -2.33,5.43 -2.80,6.03 -3.30,6.66 -3.79,7.30 -4.27,7.86 -4.75,8.43 -6.95,10.08 -9.14,11.73 -9.39,11.65 -9.64,11.58 -9.86,11.43 -10.08,11.28 -10.23,11.06 -10.39,10.85 -10.47,10.60 -10.55,10.35 -10.55,10.09 -10.54,9.82 -10.46,9.58 -10.37,9.33 -10.20,9.12 -10.04,8.91 -9.82,8.77 -9.60,8.62 -9.35,8.56 -9.09,8.49 -8.83,8.51 -8.57,8.53 -8.32,8.63 -8.08,8.73 -7.88,8.90 -7.68,9.07 -7.55,9.30 -7.42,9.53 -7.36,9.79 -7.31,10.05 -7.34,10.31 -7.38,10.57 -7.49,10.81 -7.60,11.05 -7.79,11.23 -7.97,11.42 -8.21,11.54 -8.44,11.66 -8.70,11.70 -8.96,11.74 -9.22,11.69 -9.48,11.65 -9.71,11.52 -9.94,11.39 -10.12,11.20 -10.30,11.00 -10.41,10.76 -10.52,10.52 -10.54,10.26 -10.56,10.00 -10.50,9.74 -10.44,9.49 -10.30,9.26 -10.16,9.04 -9.96,8.87 -9.76,8.70 -9.51,8.61 -9.27,8.51 -9.00,8.50 -8.74,8.49 -8.74,8.49 -8.74,8.49 -7.92,7.35 -7.10,6.21 -6.67,5.74 -6.24,5.27 -5.75,4.67 -5.25,4.07 -4.75,3.47 -4.24,2.87 -3.76,2.32 -3.28,1.77 -2.84,1.31 -2.41,0.86 -1.99,0.35 -1.56,-0.14 -1.34,-0.44 -1.11,-0.74 -1.01,-0.86 -0.90,-0.99 -0.77,-1.08 -0.64,-1.17 -0.49,-1.23 -0.34,-1.29 -0.18,-1.32 -0.02,-1.34 0.13,-1.32 0.30,-1.30 0.45,-1.25 0.60,-1.19 0.73,-1.10 0.87,-1.01 0.98,-0.89 1.09,-0.78 1.17,-0.63 1.24,-0.49 1.28,-0.33 1.33,-0.18 1.33,-0.02 1.33,0.14 1.29,0.29 1.26,0.45 1.19,0.60 1.11,0.74 1.11,0.74 L 1.11,0.74 Z"></path></g><g transform="translate(55.97374065332383 29.75869733097909) rotate(0 0.0000013779423397863866 1.1559021142950883)" stroke="none"><path fill="#1e1e1e" d="M 0.91,0.91 Q 0.91,0.91 0.64,1.20 0.38,1.50 -0.09,1.25 -0.56,1.01 -0.09,1.28 0.38,1.55 0.78,1.18 1.17,0.82 1.15,0.19 1.13,-0.43 1.38,-0.31 1.63,-0.18 1.83,0.01 2.03,0.21 2.15,0.46 2.28,0.71 2.31,0.99 2.35,1.27 2.30,1.54 2.24,1.82 2.10,2.06 1.96,2.31 1.75,2.49 1.54,2.68 1.29,2.79 1.03,2.90 0.75,2.92 0.47,2.94 0.20,2.87 -0.07,2.80 -0.30,2.65 -0.54,2.50 -0.71,2.28 -0.89,2.06 -0.98,1.80 -1.08,1.53 -1.08,1.25 -1.09,0.97 -1.01,0.71 -0.92,0.44 -0.76,0.21 -0.60,-0.01 -0.37,-0.17 -0.14,-0.33 0.12,-0.41 0.39,-0.50 0.67,-0.49 0.95,-0.48 1.21,-0.38 1.48,-0.28 1.69,-0.11 1.91,0.06 2.06,0.30 2.21,0.53 2.28,0.81 2.35,1.08 2.32,1.36 2.30,1.64 2.19,1.90 2.07,2.15 1.89,2.36 1.70,2.57 1.45,2.71 1.21,2.84 0.93,2.90 0.66,2.95 0.38,2.91 0.10,2.87 0.10,2.87 0.10,2.87 -1.00,2.10 -2.12,1.34 -2.11,0.60 -2.11,-0.13 -1.78,-0.65 -1.44,-1.18 -0.61,-1.45 0.22,-1.71 0.82,-1.42 1.42,-1.13 1.76,-0.70 2.10,-0.28 2.31,0.25 2.52,0.79 2.48,1.43 2.44,2.06 2.07,2.64 1.71,3.22 0.93,3.57 0.14,3.92 -0.57,3.66 -1.30,3.41 -1.64,2.97 -1.98,2.54 -2.11,1.66 -2.25,0.79 -1.87,0.20 -1.50,-0.38 -1.20,-0.64 -0.91,-0.91 -0.78,-1.00 -0.66,-1.10 -0.52,-1.16 -0.38,-1.23 -0.23,-1.25 -0.07,-1.28 0.07,-1.27 0.23,-1.26 0.38,-1.22 0.52,-1.17 0.66,-1.09 0.79,-1.01 0.90,-0.90 1.01,-0.79 1.09,-0.66 1.17,-0.52 1.22,-0.38 1.26,-0.23 1.27,-0.07 1.28,0.07 1.25,0.23 1.23,0.38 1.16,0.52 1.10,0.66 1.00,0.78 0.91,0.91 0.91,0.91 L 0.91,0.91 Z"></path></g><g transform="translate(65.58217413639522 30.589502879903307) rotate(0 -0.5598882995926715 -9.211093466164243)" stroke="none"><path fill="#1e1e1e" d="M -1.25,0.11 Q -1.25,0.11 -1.30,-0.71 -1.35,-1.53 -1.42,-2.06 -1.48,-2.59 -1.59,-3.66 -1.70,-4.73 -1.76,-5.34 -1.82,-5.95 -1.89,-6.56 -1.95,-7.17 -2.01,-7.80 -2.06,-8.42 -2.11,-9.07 -2.16,-9.72 -2.21,-10.31 -2.26,-10.89 -2.30,-11.45 -2.34,-12.01 -2.41,-12.92 -2.48,-13.82 -2.34,-16.30 -2.20,-18.77 -2.10,-18.99 -2.00,-19.20 -1.84,-19.37 -1.68,-19.54 -1.47,-19.65 -1.26,-19.76 -1.03,-19.80 -0.79,-19.83 -0.56,-19.80 -0.33,-19.76 -0.12,-19.64 0.08,-19.53 0.24,-19.36 0.40,-19.19 0.50,-18.97 0.60,-18.76 0.62,-18.52 0.64,-18.29 0.59,-18.06 0.54,-17.83 0.42,-17.63 0.29,-17.43 0.11,-17.27 -0.06,-17.12 -0.28,-17.04 -0.50,-16.95 -0.73,-16.94 -0.97,-16.93 -1.19,-16.99 -1.42,-17.06 -1.62,-17.19 -1.81,-17.32 -1.95,-17.51 -2.09,-17.70 -2.17,-17.92 -2.24,-18.15 -2.24,-18.38 -2.24,-18.62 -2.16,-18.84 -2.09,-19.07 -1.94,-19.25 -1.80,-19.44 -1.60,-19.57 -1.41,-19.70 -1.18,-19.77 -0.95,-19.83 -0.71,-19.81 -0.48,-19.80 -0.26,-19.71 -0.04,-19.62 0.13,-19.47 0.31,-19.31 0.43,-19.11 0.55,-18.91 0.60,-18.68 0.65,-18.45 0.62,-18.21 0.59,-17.98 0.59,-17.98 0.59,-17.98 0.48,-15.97 0.37,-13.96 0.38,-13.06 0.40,-12.15 0.42,-11.62 0.44,-11.09 0.47,-10.51 0.51,-9.94 0.56,-9.28 0.61,-8.63 0.66,-8.04 0.70,-7.45 0.76,-6.82 0.82,-6.19 0.87,-5.58 0.92,-4.98 0.96,-4.38 1.01,-3.78 1.03,-2.76 1.06,-1.74 1.15,-0.92 1.25,-0.11 1.24,0.04 1.24,0.19 1.19,0.33 1.15,0.48 1.08,0.61 1.00,0.74 0.90,0.85 0.80,0.96 0.67,1.04 0.54,1.13 0.40,1.17 0.26,1.22 0.10,1.24 -0.04,1.25 -0.19,1.23 -0.33,1.20 -0.47,1.15 -0.61,1.09 -0.74,1.00 -0.86,0.91 -0.95,0.79 -1.05,0.67 -1.12,0.54 -1.18,0.40 -1.21,0.25 -1.25,0.11 -1.25,0.11 L -1.25,0.11 Z"></path></g><g transform="translate(73.24002822724196 12.022827666559579) rotate(0 -8.235801703138236 0.5237682962523991)" stroke="none"><path fill="#1e1e1e" d="M -0.04,1.21 Q -0.04,1.21 -0.87,1.16 -1.70,1.11 -2.74,1.17 -3.79,1.22 -4.34,1.27 -4.90,1.33 -5.55,1.40 -6.20,1.47 -6.90,1.54 -7.59,1.62 -8.26,1.74 -8.94,1.85 -9.63,1.96 -10.32,2.07 -11.01,2.16 -11.70,2.26 -12.35,2.31 -13.00,2.37 -14.71,2.35 -16.43,2.32 -16.63,2.28 -16.84,2.23 -17.03,2.13 -17.21,2.02 -17.35,1.86 -17.49,1.70 -17.57,1.51 -17.65,1.31 -17.67,1.10 -17.68,0.89 -17.63,0.68 -17.57,0.48 -17.46,0.30 -17.34,0.12 -17.17,-0.00 -17.01,-0.13 -16.81,-0.20 -16.61,-0.27 -16.39,-0.27 -16.18,-0.28 -15.98,-0.21 -15.78,-0.15 -15.61,-0.02 -15.44,0.09 -15.32,0.27 -15.19,0.44 -15.13,0.65 -15.07,0.85 -15.08,1.06 -15.09,1.27 -15.17,1.47 -15.24,1.67 -15.38,1.83 -15.51,2.00 -15.69,2.11 -15.87,2.22 -16.08,2.27 -16.29,2.32 -16.50,2.30 -16.71,2.28 -16.90,2.19 -17.09,2.11 -17.25,1.96 -17.41,1.82 -17.51,1.63 -17.61,1.45 -17.65,1.24 -17.69,1.03 -17.65,0.82 -17.62,0.61 -17.53,0.42 -17.43,0.23 -17.28,0.08 -17.13,-0.05 -16.94,-0.15 -16.74,-0.24 -16.53,-0.26 -16.32,-0.29 -16.32,-0.29 -16.32,-0.29 -14.76,-0.25 -13.20,-0.20 -12.61,-0.24 -12.02,-0.27 -11.37,-0.35 -10.72,-0.44 -10.05,-0.54 -9.39,-0.64 -8.64,-0.78 -7.89,-0.92 -7.18,-1.01 -6.47,-1.09 -5.78,-1.17 -5.09,-1.24 -4.49,-1.27 -3.90,-1.29 -2.76,-1.27 -1.61,-1.24 -0.78,-1.22 0.04,-1.21 0.19,-1.19 0.33,-1.16 0.46,-1.11 0.60,-1.05 0.72,-0.96 0.83,-0.87 0.93,-0.76 1.02,-0.65 1.08,-0.52 1.15,-0.38 1.18,-0.24 1.21,-0.10 1.20,0.04 1.20,0.19 1.15,0.33 1.11,0.47 1.04,0.60 0.97,0.72 0.87,0.83 0.77,0.93 0.64,1.01 0.52,1.09 0.38,1.14 0.24,1.19 0.10,1.20 -0.04,1.21 -0.04,1.21 L -0.04,1.21 Z"></path></g><g transform="translate(73.99858550183149 19.35558105820826) rotate(0 -8.922117593104872 1.029474523921067)" stroke="none"><path fill="#1e1e1e" d="M -0.03,1.22 Q -0.03,1.22 -0.83,1.19 -1.63,1.15 -2.25,1.17 -2.87,1.18 -3.50,1.22 -4.13,1.26 -4.75,1.32 -5.37,1.39 -6.01,1.46 -6.64,1.54 -7.31,1.62 -7.98,1.70 -8.60,1.78 -9.22,1.86 -9.86,1.96 -10.51,2.06 -11.15,2.16 -11.79,2.26 -12.39,2.37 -13.00,2.49 -13.58,2.60 -14.16,2.71 -15.69,3.04 -17.21,3.38 -17.43,3.39 -17.65,3.41 -17.87,3.36 -18.08,3.31 -18.27,3.19 -18.45,3.07 -18.59,2.90 -18.73,2.72 -18.81,2.52 -18.88,2.31 -18.89,2.09 -18.90,1.87 -18.83,1.66 -18.77,1.45 -18.64,1.27 -18.51,1.09 -18.33,0.96 -18.15,0.83 -17.94,0.77 -17.73,0.70 -17.51,0.71 -17.29,0.71 -17.08,0.79 -16.87,0.87 -16.70,1.00 -16.53,1.14 -16.41,1.33 -16.29,1.51 -16.24,1.73 -16.19,1.94 -16.20,2.16 -16.22,2.38 -16.31,2.58 -16.40,2.79 -16.54,2.95 -16.69,3.12 -16.88,3.22 -17.07,3.33 -17.29,3.37 -17.51,3.42 -17.73,3.39 -17.94,3.36 -18.14,3.26 -18.34,3.16 -18.50,3.00 -18.65,2.85 -18.75,2.65 -18.85,2.45 -18.88,2.23 -18.91,2.02 -18.87,1.80 -18.82,1.58 -18.72,1.39 -18.61,1.20 -18.44,1.05 -18.28,0.90 -18.08,0.82 -17.87,0.73 -17.87,0.73 -17.87,0.73 -16.24,0.41 -14.61,0.09 -14.04,0.00 -13.47,-0.08 -12.82,-0.19 -12.18,-0.30 -11.54,-0.39 -10.90,-0.49 -10.21,-0.59 -9.52,-0.70 -8.89,-0.77 -8.26,-0.83 -7.60,-0.90 -6.93,-0.97 -6.26,-1.04 -5.58,-1.11 -4.92,-1.16 -4.25,-1.21 -3.56,-1.23 -2.88,-1.26 -2.22,-1.25 -1.56,-1.24 -0.76,-1.23 0.03,-1.22 0.17,-1.20 0.32,-1.18 0.46,-1.12 0.59,-1.06 0.71,-0.98 0.83,-0.89 0.93,-0.78 1.02,-0.66 1.09,-0.53 1.15,-0.40 1.18,-0.26 1.21,-0.11 1.21,0.03 1.21,0.17 1.17,0.32 1.13,0.46 1.06,0.59 0.98,0.72 0.88,0.82 0.78,0.93 0.66,1.01 0.54,1.09 0.40,1.14 0.26,1.19 0.11,1.20 -0.03,1.22 -0.03,1.22 L -0.03,1.22 Z"></path></g><g transform="translate(78.40546291543114 28.49442969489371) rotate(0 0.4334620871611605 1.0114138332797893)" stroke="none"><path fill="#1e1e1e" d="M 1.24,0.20 Q 1.24,0.20 1.20,0.58 1.16,0.96 0.65,0.73 0.14,0.50 -0.20,0.95 -0.55,1.41 -0.52,1.19 -0.49,0.98 -0.51,0.72 -0.54,0.46 -0.48,0.21 -0.42,-0.04 -0.28,-0.26 -0.14,-0.47 0.05,-0.64 0.25,-0.80 0.49,-0.89 0.74,-0.99 1.00,-1.00 1.26,-1.01 1.50,-0.93 1.75,-0.86 1.96,-0.71 2.18,-0.56 2.33,-0.35 2.48,-0.14 2.56,0.10 2.64,0.35 2.63,0.60 2.63,0.86 2.54,1.11 2.45,1.35 2.29,1.56 2.13,1.76 1.92,1.90 1.70,2.04 1.45,2.11 1.20,2.17 0.94,2.15 0.68,2.13 0.44,2.03 0.20,1.93 0.01,1.76 -0.18,1.59 -0.31,1.37 -0.44,1.14 -0.49,0.89 -0.54,0.63 -0.51,0.38 -0.47,0.12 -0.36,-0.11 -0.25,-0.34 -0.07,-0.52 0.11,-0.71 0.34,-0.83 0.57,-0.94 0.83,-0.98 1.08,-1.02 1.34,-0.97 1.59,-0.92 1.82,-0.80 2.05,-0.67 2.22,-0.48 2.40,-0.29 2.50,-0.05 2.61,0.18 2.60,0.18 2.60,0.17 1.87,-0.53 1.14,-1.24 1.60,-0.81 2.06,-0.37 2.28,0.55 2.51,1.47 2.18,2.17 1.84,2.87 1.24,3.12 0.64,3.36 0.01,3.19 -0.61,3.03 -1.02,2.40 -1.43,1.77 -1.42,1.15 -1.41,0.53 -1.32,0.16 -1.24,-0.20 -1.19,-0.35 -1.15,-0.49 -1.07,-0.62 -1.00,-0.76 -0.89,-0.86 -0.79,-0.97 -0.66,-1.05 -0.53,-1.13 -0.39,-1.18 -0.24,-1.23 -0.09,-1.24 0.05,-1.25 0.20,-1.23 0.35,-1.20 0.49,-1.14 0.63,-1.08 0.75,-0.99 0.87,-0.90 0.97,-0.78 1.06,-0.66 1.13,-0.53 1.19,-0.39 1.22,-0.24 1.25,-0.09 1.24,0.05 1.24,0.20 1.24,0.20 L 1.24,0.20 Z"></path></g><g transform="translate(92.63750485568266 30.372769080438047) rotate(0 -0.3070358747294222 -8.723446551194456)" stroke="none"><path fill="#1e1e1e" d="M -1.19,0.01 Q -1.19,0.01 -1.20,-0.75 -1.20,-1.52 -1.23,-2.72 -1.26,-3.93 -1.23,-4.71 -1.20,-5.50 -1.20,-6.26 -1.20,-7.01 -1.21,-7.74 -1.22,-8.46 -1.27,-9.18 -1.31,-9.90 -1.35,-10.56 -1.39,-11.22 -1.45,-11.80 -1.51,-12.38 -1.57,-12.95 -1.64,-13.52 -1.72,-15.54 -1.80,-17.57 -1.73,-17.77 -1.66,-17.97 -1.53,-18.13 -1.40,-18.30 -1.23,-18.42 -1.05,-18.53 -0.85,-18.59 -0.64,-18.64 -0.43,-18.63 -0.22,-18.61 -0.03,-18.53 0.16,-18.45 0.31,-18.31 0.47,-18.17 0.58,-17.99 0.69,-17.81 0.73,-17.61 0.77,-17.40 0.75,-17.19 0.72,-16.98 0.63,-16.79 0.54,-16.60 0.39,-16.45 0.25,-16.30 0.06,-16.20 -0.12,-16.11 -0.33,-16.07 -0.53,-16.04 -0.74,-16.08 -0.95,-16.12 -1.13,-16.22 -1.32,-16.32 -1.46,-16.47 -1.60,-16.63 -1.69,-16.82 -1.78,-17.01 -1.80,-17.22 -1.82,-17.43 -1.77,-17.63 -1.72,-17.84 -1.61,-18.02 -1.50,-18.20 -1.34,-18.33 -1.18,-18.47 -0.98,-18.54 -0.78,-18.62 -0.57,-18.63 -0.36,-18.64 -0.16,-18.58 0.03,-18.52 0.21,-18.40 0.38,-18.28 0.50,-18.11 0.63,-17.94 0.69,-17.74 0.76,-17.54 0.76,-17.33 0.75,-17.12 0.75,-17.12 0.75,-17.12 0.83,-15.43 0.92,-13.74 0.95,-13.15 0.99,-12.57 1.02,-11.95 1.05,-11.34 1.07,-10.70 1.09,-10.05 1.14,-9.28 1.19,-8.51 1.20,-7.77 1.21,-7.03 1.22,-6.24 1.23,-5.46 1.23,-4.68 1.23,-3.89 1.20,-2.72 1.16,-1.55 1.18,-0.78 1.19,-0.01 1.18,0.12 1.16,0.27 1.11,0.40 1.06,0.54 0.98,0.66 0.90,0.78 0.79,0.87 0.69,0.97 0.56,1.04 0.43,1.11 0.29,1.14 0.16,1.18 0.01,1.18 -0.12,1.18 -0.26,1.15 -0.40,1.12 -0.53,1.05 -0.66,0.99 -0.77,0.89 -0.88,0.80 -0.96,0.68 -1.05,0.57 -1.10,0.43 -1.15,0.30 -1.17,0.15 -1.19,0.01 -1.19,0.01 L -1.19,0.01 Z"></path></g><g transform="translate(82.48724238571754 13.503827724167877) rotate(0 9.102727255402783 -0.6140731274013547)" stroke="none"><path fill="#1e1e1e" d="M -0.58,-1.20 Q -0.58,-1.20 -0.14,-1.43 0.29,-1.66 1.08,-1.95 1.86,-2.24 2.54,-2.39 3.22,-2.54 4.10,-2.60 4.98,-2.67 5.88,-2.70 6.79,-2.72 7.55,-2.74 8.31,-2.76 8.92,-2.75 9.53,-2.75 10.40,-2.77 11.27,-2.78 12.31,-2.78 13.35,-2.77 14.25,-2.76 15.14,-2.74 16.63,-2.71 18.11,-2.69 18.37,-2.65 18.62,-2.61 18.84,-2.50 19.07,-2.38 19.25,-2.20 19.43,-2.02 19.54,-1.79 19.65,-1.56 19.68,-1.31 19.71,-1.05 19.66,-0.80 19.61,-0.55 19.48,-0.33 19.35,-0.11 19.16,0.04 18.97,0.21 18.74,0.31 18.50,0.41 18.25,0.43 17.99,0.44 17.75,0.38 17.50,0.31 17.29,0.17 17.07,0.03 16.92,-0.16 16.76,-0.36 16.67,-0.60 16.59,-0.84 16.59,-1.09 16.58,-1.34 16.66,-1.59 16.74,-1.83 16.89,-2.03 17.04,-2.24 17.25,-2.39 17.46,-2.53 17.70,-2.60 17.94,-2.68 18.20,-2.67 18.45,-2.66 18.69,-2.56 18.93,-2.47 19.13,-2.31 19.32,-2.15 19.46,-1.93 19.59,-1.72 19.65,-1.47 19.71,-1.22 19.68,-0.97 19.66,-0.72 19.56,-0.48 19.45,-0.25 19.28,-0.06 19.11,0.11 18.89,0.24 18.66,0.36 18.41,0.40 18.16,0.45 18.16,0.45 18.16,0.45 16.60,0.42 15.03,0.38 14.19,0.35 13.35,0.32 12.32,0.32 11.29,0.33 10.43,0.33 9.58,0.33 8.53,0.35 7.47,0.37 6.73,0.36 5.99,0.35 5.11,0.38 4.23,0.41 3.41,0.47 2.58,0.52 2.03,0.65 1.49,0.79 1.03,0.99 0.58,1.20 0.43,1.25 0.28,1.30 0.12,1.32 -0.03,1.33 -0.19,1.31 -0.35,1.28 -0.50,1.22 -0.65,1.16 -0.78,1.06 -0.91,0.97 -1.01,0.85 -1.12,0.72 -1.19,0.58 -1.26,0.43 -1.29,0.27 -1.33,0.12 -1.32,-0.03 -1.32,-0.19 -1.27,-0.35 -1.23,-0.50 -1.15,-0.65 -1.07,-0.79 -0.96,-0.90 -0.85,-1.02 -0.72,-1.11 -0.58,-1.20 -0.58,-1.20 L -0.58,-1.20 Z"></path></g><g transform="translate(103.61857011868756 18.994361733612436) rotate(0 -10.114139710740233 0.9752917630259503)" stroke="none"><path fill="#1e1e1e" d="M 0.04,1.27 Q 0.04,1.27 -0.55,1.31 -1.15,1.34 -2.17,1.44 -3.18,1.55 -4.23,1.67 -5.27,1.79 -5.81,1.87 -6.35,1.95 -6.93,2.03 -7.52,2.11 -8.17,2.17 -8.82,2.23 -9.40,2.32 -9.98,2.40 -10.59,2.48 -11.20,2.56 -11.76,2.64 -12.31,2.72 -12.89,2.79 -13.46,2.86 -13.99,2.92 -14.52,2.99 -15.06,3.05 -15.60,3.11 -17.78,3.26 -19.96,3.42 -20.20,3.41 -20.44,3.40 -20.66,3.32 -20.88,3.24 -21.06,3.09 -21.25,2.94 -21.37,2.74 -21.50,2.54 -21.55,2.31 -21.61,2.09 -21.59,1.85 -21.57,1.62 -21.48,1.40 -21.38,1.18 -21.22,1.01 -21.07,0.83 -20.86,0.72 -20.65,0.60 -20.42,0.56 -20.19,0.51 -19.96,0.55 -19.72,0.58 -19.51,0.69 -19.30,0.79 -19.13,0.96 -18.97,1.13 -18.86,1.34 -18.76,1.55 -18.73,1.78 -18.70,2.02 -18.74,2.25 -18.79,2.48 -18.91,2.69 -19.02,2.89 -19.20,3.05 -19.37,3.21 -19.59,3.30 -19.81,3.39 -20.04,3.41 -20.28,3.43 -20.51,3.37 -20.74,3.31 -20.94,3.18 -21.13,3.05 -21.28,2.87 -21.43,2.69 -21.51,2.46 -21.59,2.24 -21.59,2.01 -21.60,1.77 -21.53,1.54 -21.46,1.32 -21.32,1.13 -21.18,0.94 -20.99,0.80 -20.80,0.66 -20.57,0.59 -20.35,0.53 -20.35,0.53 -20.35,0.53 -18.12,0.39 -15.90,0.25 -14.84,0.15 -13.78,0.05 -13.23,-0.00 -12.69,-0.06 -12.13,-0.13 -11.57,-0.20 -10.98,-0.27 -10.38,-0.35 -9.74,-0.45 -9.10,-0.54 -8.49,-0.61 -7.88,-0.67 -7.31,-0.74 -6.74,-0.81 -6.16,-0.89 -5.58,-0.96 -5.01,-1.02 -4.44,-1.08 -3.40,-1.14 -2.35,-1.20 -1.80,-1.23 -1.24,-1.25 -0.64,-1.26 -0.04,-1.27 0.10,-1.26 0.26,-1.25 0.40,-1.20 0.55,-1.15 0.68,-1.07 0.81,-0.98 0.92,-0.87 1.02,-0.76 1.10,-0.62 1.18,-0.49 1.22,-0.34 1.26,-0.19 1.27,-0.04 1.27,0.11 1.24,0.26 1.21,0.41 1.14,0.55 1.07,0.69 0.97,0.80 0.88,0.92 0.75,1.02 0.63,1.11 0.49,1.17 0.34,1.23 0.19,1.25 0.04,1.27 0.04,1.27 L 0.04,1.27 Z"></path></g><g transform="translate(103.07674113179382 28.74728211975696) rotate(0 -9.31945692104091 0.34315863395448787)" stroke="none"><path fill="#1e1e1e" d="M 0,1.28 Q 0,1.28 -0.72,1.27 -1.45,1.26 -2.39,1.30 -3.33,1.34 -3.87,1.34 -4.41,1.34 -4.94,1.36 -5.48,1.37 -6.09,1.36 -6.69,1.36 -7.23,1.38 -7.78,1.40 -8.35,1.44 -8.92,1.48 -9.49,1.54 -10.07,1.59 -10.66,1.64 -11.24,1.69 -11.78,1.75 -12.31,1.80 -13.32,1.90 -14.33,2.01 -16.45,2.10 -18.57,2.19 -18.80,2.16 -19.04,2.12 -19.25,2.02 -19.47,1.91 -19.63,1.74 -19.80,1.57 -19.91,1.36 -20.01,1.15 -20.04,0.91 -20.08,0.67 -20.03,0.44 -19.99,0.21 -19.87,0.00 -19.75,-0.20 -19.57,-0.36 -19.39,-0.52 -19.18,-0.61 -18.96,-0.70 -18.72,-0.72 -18.48,-0.74 -18.25,-0.68 -18.02,-0.62 -17.82,-0.50 -17.62,-0.37 -17.47,-0.18 -17.32,0.00 -17.24,0.22 -17.16,0.44 -17.15,0.68 -17.15,0.92 -17.22,1.15 -17.29,1.37 -17.43,1.57 -17.57,1.76 -17.76,1.90 -17.95,2.04 -18.18,2.11 -18.41,2.18 -18.65,2.17 -18.89,2.16 -19.11,2.08 -19.33,2.00 -19.52,1.85 -19.70,1.70 -19.83,1.50 -19.96,1.29 -20.02,1.06 -20.07,0.83 -20.05,0.59 -20.03,0.36 -19.94,0.14 -19.84,-0.07 -19.68,-0.25 -19.52,-0.42 -19.32,-0.54 -19.11,-0.66 -18.87,-0.70 -18.64,-0.75 -18.64,-0.75 -18.64,-0.75 -16.59,-0.81 -14.53,-0.88 -13.55,-0.94 -12.58,-1.01 -12.02,-1.06 -11.46,-1.10 -10.90,-1.15 -10.34,-1.19 -9.72,-1.25 -9.10,-1.30 -8.48,-1.34 -7.86,-1.38 -7.26,-1.40 -6.65,-1.41 -6.08,-1.40 -5.51,-1.39 -4.42,-1.36 -3.33,-1.34 -2.39,-1.30 -1.45,-1.26 -0.72,-1.27 0,-1.28 0.15,-1.26 0.30,-1.24 0.45,-1.18 0.59,-1.13 0.72,-1.04 0.84,-0.95 0.95,-0.84 1.05,-0.72 1.12,-0.59 1.19,-0.45 1.23,-0.30 1.27,-0.15 1.27,0.00 1.27,0.15 1.23,0.30 1.19,0.45 1.12,0.59 1.05,0.72 0.95,0.84 0.84,0.95 0.72,1.04 0.59,1.13 0.45,1.18 0.30,1.24 0.15,1.26 -0.00,1.28 -0.00,1.28 L 0,1.28 Z"></path></g></svg>